<?xml version="1.0" encoding="UTF-8"?>
<svg width="209px" height="484px" viewBox="0 0 209 484" version="1.1" xmlns="http://www.w3.org/2000/svg" xmlns:xlink="http://www.w3.org/1999/xlink">
    <title>big-ben</title>
    <g id="Web-v2" stroke="none" stroke-width="1" fill="none" fill-rule="evenodd">
        <g id="big-ben" fill="#000000" fill-rule="nonzero">
            <path d="M204.965,199.978 L4.985,199.978 C2.774,199.978 0.985,201.767 0.985,203.978 L0.985,403.958 C0.985,405.318717 0.985,406.651717 0.985,407.957 C2.34605754,407.957 3.67939087,407.957 4.985,407.957 L204.965,407.957 C205.710516,407.957 207.04385,407.957 208.965,407.957 C208.965,406.019154 208.965,404.686154 208.965,403.958 L208.965,203.978 C208.965,201.767 207.176,199.978 204.965,199.978 Z M200.965,399.958 L8.984,399.958 L8.984,207.977 L200.965,207.977 L200.965,399.958 L200.965,399.958 Z" id="structure"></path>
            <path d="M172.969,231.975 L36.981,231.975 C36.1798469,231.975 34.8468469,231.975 32.982,231.975 C32.982,233.969182 32.982,235.302516 32.982,235.975 L32.982,371.961 C32.982,372.706977 32.982,374.040311 32.982,375.961 C34.9203067,375.961 36.2533067,375.961 36.981,375.961 L172.969,375.961 C173.705533,375.961 175.0382,375.961 176.967,375.961 C176.967,374.031133 176.967,372.6978 176.967,371.961 L176.967,235.975 C176.967,235.256134 176.967,233.9228 176.967,231.975 C175.056117,231.975 173.723451,231.975 172.969,231.975 Z M168.969,367.961 L40.981,367.961 L40.981,239.974 L168.969,239.974 L168.969,367.961 Z" id="clock-container"></path>
            <path d="M104.975,247.973 C74.099,247.973 48.98,273.096 48.98,303.968 C48.98,334.84 74.099,359.962 104.975,359.962 C135.846,359.962 160.969,334.84 160.969,303.968 C160.969,273.096 135.846,247.973 104.975,247.973 Z M104.975,351.963 C78.508,351.963 56.979,330.434 56.979,303.968 C56.979,277.502 78.509,255.973 104.975,255.973 C131.442,255.973 152.971,277.502 152.971,303.968 C152.971,330.434 131.442,351.963 104.975,351.963 Z" id="clock-face"></path>
            <polygon id="roof-support-left" points="16.983 147.983 16.983 187.979 24.983 187.979 24.983 147.983"></polygon>
            <path d="M188.967,167.98 L20.983,167.98 C18.772,167.98 16.983,169.769 16.983,171.98 C16.983,174.191 18.772,175.98 20.983,175.98 L188.967,175.98 C191.178,175.98 192.965,174.191 192.965,171.98 C192.965,169.769 191.178,167.98 188.967,167.98 Z" id="roof-support"></path>
            <polygon id="roof-support-right" points="184.967 147.983 184.967 187.979 192.965 187.979 192.965 147.983"></polygon>
            <path d="M52.981,187.978 L52.981,203.977 C52.981,206.188 54.771,207.977 56.981,207.977 C59.191,207.977 60.98,206.188 60.981,203.977 L60.981,187.978 L52.981,187.978 Z" id="point-two"></path>
            <path d="M100.976,187.978 L100.976,203.977 C100.976,206.188 102.765,207.977 104.976,207.977 C107.187,207.977 108.975,206.188 108.975,203.977 L108.975,187.978 L100.976,187.978 Z" id="point-three"></path>
            <path d="M148.969,187.978 L148.969,203.977 C148.969,206.188 150.758,207.977 152.969,207.977 C155.18,207.977 156.969,206.188 156.969,203.977 L156.969,187.978 L148.969,187.978 Z" id="point-four"></path>
            <path d="M0.985,187.978 L0.985,203.977 C0.985,206.188 2.775,207.977 4.985,207.977 C7.195,207.977 8.984,206.188 8.985,203.977 L8.985,187.978 L0.985,187.978 Z" id="point-one"></path>
            <path d="M200.965,187.978 L200.965,203.977 C200.965,206.188 202.754,207.977 204.965,207.977 C207.176,207.977 208.965,206.188 208.965,203.977 L208.965,187.978 L200.965,187.978 Z" id="point-five"></path>
            <path d="M104.975,263.972 C102.764,263.972 100.975,265.76 100.975,267.971 L100.975,303.968 C100.975,306.178 102.765,307.967 104.975,307.967 C107.186,307.967 108.975,306.178 108.975,303.968 L108.975,267.971 C108.975,265.76 107.186,263.972 104.975,263.972 Z" id="hour-hand"></path>
            <path d="M133.262,326.598 L107.811,301.148 C106.248,299.586 103.717,299.586 102.155,301.148 C100.593,302.71 100.593,305.241 102.155,306.803 L127.606,332.254 C128.387,333.035 129.411,333.426 130.434,333.426 C131.457,333.426 132.481,333.036 133.262,332.254 C134.823,330.692 134.823,328.16 133.262,326.598 Z" id="minute-hand"></path>
            <path d="M71.478,112.862 C69.751,111.479 67.239,111.776 65.853,113.487 L33.856,153.483 L40.106,158.483 L72.103,118.487 C73.482,116.76 73.201,114.245 71.478,112.862 Z" id="roof-left"></path>
            <path d="M140.971,111.987 L68.978,111.987 C66.767,111.987 64.978,113.776 64.978,115.987 C64.978,118.197 66.767,119.986 68.978,119.986 L140.971,119.986 C143.182,119.986 144.971,118.197 144.971,115.987 C144.971,113.776 143.182,111.987 140.971,111.987 Z" id="roof-top"></path>
            <path d="M176.092,153.482 L144.096,113.486 C142.705,111.767 140.205,111.474 138.471,112.861 C136.752,114.244 136.471,116.759 137.846,118.486 L169.844,158.482 L176.092,153.482 Z" id="roof-right"></path>
            <path d="M68.978,87.989 C66.767,87.989 64.978,89.778 64.978,91.989 L64.978,115.987 C64.978,118.197 66.767,119.986 68.978,119.986 C71.189,119.986 72.978,118.197 72.978,115.987 L72.978,91.989 C72.978,89.778 71.189,87.989 68.978,87.989 Z" id="spire-support-left"></path>
            <path d="M140.971,87.989 C138.76,87.989 136.971,89.778 136.971,91.989 L136.971,115.987 C136.971,118.197 138.76,119.986 140.971,119.986 C143.182,119.986 144.971,118.197 144.971,115.987 L144.971,91.989 C144.971,89.778 143.182,87.989 140.971,87.989 Z" id="spire-support-right"></path>
            <path d="M140.971,87.989 L68.978,87.989 C66.767,87.989 64.978,89.778 64.978,91.989 C64.978,94.2 66.767,95.989 68.978,95.989 L140.971,95.989 C143.182,95.989 144.971,94.2 144.971,91.989 C144.971,89.778 143.182,87.989 140.971,87.989 Z" id="spire-base"></path>
            <path d="M106.49,0.294 L101.272,0.295 L65.275,90.473 C64.439,92.52 65.42,94.856 67.462,95.692 C67.958,95.895 68.47,95.989 68.978,95.989 C70.553,95.989 72.049,95.051 72.681,93.504 L108.678,5.513 L106.49,0.294 Z" id="spire-left"></path>
            <path d="M144.674,88.286 L108.678,0.295 L103.46,0.295 L101.272,5.514 L137.268,93.505 C137.901,95.051 139.393,95.989 140.971,95.989 C141.471,95.989 141.987,95.895 142.486,95.693 C144.533,94.857 145.51,90.333 144.674,88.286 Z" id="spire-right"></path>
            <polygon id="tower-outer-left" points="16.983 419.957 16.983 483.95 24.983 483.95 24.983 419.957"></polygon>
            <polygon id="tower-outer-right" points="184.967 419.957 184.967 483.95 192.965 483.95 192.965 419.957"></polygon>
            <polygon id="tower-inner-right" points="136.971 443.955 136.971 483.95 144.971 483.95 144.971 443.955"></polygon>
            <polygon id="tower-inner-left" points="64.978 443.955 64.978 483.95 72.978 483.95 72.978 443.955"></polygon>
            <polygon id="carat-three-left" points="79.805 129.156 74.149 129.156 66.15 137.156 66.15 142.812 71.806 142.811 79.805 134.812"></polygon>
            <polygon id="carat-three-right" points="87.804 137.157 79.805 129.157 74.149 129.157 74.149 134.813 82.149 142.812 87.804 142.813"></polygon>
            <polygon id="carat-two-left" points="107.803 145.156 102.147 145.156 94.147 153.155 94.147 158.81 99.803 158.81 107.803 150.811"></polygon>
            <polygon id="carat-two-right" points="115.801 153.155 107.803 145.156 102.147 145.156 102.147 150.811 110.147 158.81 115.801 158.81"></polygon>
            <polygon id="carat-one-left" points="135.799 129.156 130.145 129.156 122.145 137.156 122.145 142.812 127.801 142.811 135.799 134.812"></polygon>
            <polygon id="carat-one-right" points="143.799 137.157 135.799 129.157 130.145 129.157 130.145 134.813 138.143 142.812 143.799 142.813"></polygon>
        </g>
    </g>
</svg>